<?xml version="1.0" encoding="iso-8859-1"?>
<!-- Generator: Adobe Illustrator 19.0.0, SVG Export Plug-In . SVG Version: 6.00 Build 0)  -->
<svg version="1.1" id="Layer_1" xmlns="http://www.w3.org/2000/svg" xmlns:xlink="http://www.w3.org/1999/xlink" x="0px" y="0px"
	 viewBox="0 0 512 512" style="enable-background:new 0 0 512 512;" xml:space="preserve">
<g>
	<g>
		<path d="M507.089,244.143c-6.055-6.055-11.226-12.987-15.371-20.604c-11.922-21.909-34.807-35.518-59.723-35.518H420.12
			l8.397-8.397c17.619-17.618,24.177-43.424,17.116-67.347c-2.42-8.2-3.7-16.997-3.7-25.439c0-9.261-7.508-16.769-16.769-16.769
			c-8.563,0-17.122-1.245-25.439-3.7c-22.876-6.754-48.899-1.331-67.346,17.116l-8.398,8.397V80.006
			c0-24.916-13.609-47.8-35.518-59.723c-7.616-4.145-14.549-9.317-20.605-15.372c-6.549-6.548-17.165-6.549-23.714,0
			c-5.971,5.97-13.095,11.285-20.605,15.371C201.63,32.206,188.02,55.09,188.02,80.006v11.875l-8.398-8.397
			c-18.196-18.197-44.121-23.972-67.347-17.116c-8.316,2.455-16.875,3.7-25.438,3.7c-9.261,0-16.769,7.508-16.769,16.769
			c0,8.442-1.28,17.238-3.7,25.439c-7.062,23.921-0.504,49.727,17.115,67.347l8.397,8.397H80.006
			c-24.916,0-47.8,13.609-59.724,35.518c-4.145,7.616-9.315,14.549-15.371,20.604C1.767,247.288,0,251.553,0,256
			c0,4.447,1.767,8.712,4.912,11.857c5.97,5.971,11.285,13.095,15.371,20.605c11.922,21.909,34.807,35.518,59.723,35.518h11.875
			l-8.397,8.398c-17.619,17.618-24.177,43.424-17.115,67.347c2.455,8.316,3.7,16.875,3.7,25.438c0,9.261,7.508,16.769,16.769,16.769
			c8.442,0,17.238,1.28,25.439,3.7c22.876,6.754,48.899,1.331,67.346-17.116l8.398-8.397v11.875c0,24.916,13.609,47.8,35.518,59.724
			c7.509,4.086,14.633,9.402,20.604,15.371C247.288,510.234,251.553,512,256,512c4.447,0,8.712-1.767,11.857-4.912
			c6.056-6.055,12.988-11.226,20.605-15.371c21.909-11.922,35.518-34.807,35.518-59.723v-11.875l8.398,8.397
			c18.188,18.189,44.112,23.976,67.346,17.116c8.2-2.42,16.997-3.7,25.439-3.7c9.261,0,16.769-7.508,16.769-16.769
			c0-8.563,1.245-17.122,3.7-25.439c7.062-23.922,0.504-49.728-17.115-67.347l-8.397-8.397h11.875
			c24.916,0,47.8-13.609,59.724-35.518c4.086-7.509,9.402-14.633,15.371-20.604c3.144-3.145,4.91-7.411,4.91-11.858
			C512,251.553,510.233,247.287,507.089,244.143z M356.092,107.199c9.329-9.329,22.512-12.098,34.137-8.665
			c6.305,1.861,12.718,3.215,19.184,4.054c0.838,6.466,2.192,12.878,4.054,19.183c3.581,12.131,0.26,25.212-8.665,34.137
			c-40.253,40.253-38.164,37.84-39.728,40.587c-11.435-20.878-28.69-38.133-49.568-49.568
			C318.255,145.362,315.853,147.438,356.092,107.199z M221.557,80.006c0-12.622,6.902-24.219,18.011-30.265
			c5.775-3.142,11.267-6.72,16.432-10.698c5.165,3.979,10.657,7.556,16.431,10.698c11.11,6.047,18.012,17.644,18.012,30.266
			c0,56.788-0.235,53.7,0.599,56.76c-22.195-6.534-46.637-6.902-70.083,0C221.786,133.729,221.557,136.898,221.557,80.006z
			 M98.534,121.771c1.861-6.306,3.215-12.717,4.054-19.183c6.466-0.838,12.879-2.192,19.183-4.054
			c11.577-3.419,24.773-0.7,34.137,8.665c40.234,40.234,37.836,38.162,40.587,39.728c-20.878,11.435-38.133,28.69-49.568,49.568
			c-1.566-2.75,0.51-0.349-39.728-40.587C98.274,146.983,94.954,133.903,98.534,121.771z M80.006,290.443
			c-12.622,0-24.219-6.902-30.265-18.011c-3.142-5.775-6.72-11.267-10.698-16.432c3.979-5.165,7.556-10.657,10.698-16.431
			c6.047-11.11,17.644-18.012,30.266-18.012c56.788,0,53.7,0.235,56.76-0.599c-6.534,22.195-6.902,46.637,0,70.083
			C133.729,290.215,136.897,290.443,80.006,290.443z M155.909,404.801c-9.333,9.333-22.516,12.096-34.137,8.665
			c-6.306-1.861-12.717-3.215-19.183-4.054c-0.838-6.466-2.192-12.879-4.053-19.183c-3.581-12.131-0.26-25.212,8.664-34.137
			c40.236-40.234,38.163-37.835,39.729-40.587c11.437,20.88,28.693,38.136,49.575,49.571
			C193.725,366.657,196.154,364.555,155.909,404.801z M290.443,431.994c0,12.622-6.902,24.219-18.012,30.265
			c-5.775,3.144-11.266,6.72-16.431,10.698c-5.165-3.979-10.657-7.556-16.431-10.698c-11.11-6.047-18.012-17.644-18.012-30.266
			c0-56.788,0.235-53.7-0.599-56.76c22.196,6.534,46.637,6.902,70.083,0C290.215,378.271,290.443,375.103,290.443,431.994z
			 M256,346.735c-50.031,0-90.735-40.703-90.735-90.735s40.703-90.735,90.735-90.735s90.735,40.703,90.735,90.735
			S306.031,346.735,256,346.735z M413.466,390.228c-1.861,6.305-3.215,12.718-4.054,19.184c-6.466,0.838-12.878,2.192-19.183,4.054
			c-11.577,3.419-24.773,0.7-34.137-8.665c-40.234-40.234-37.835-38.162-40.587-39.728c20.878-11.435,38.132-28.69,49.568-49.568
			c1.566,2.75-0.51,0.349,39.729,40.587C413.726,365.017,417.046,378.098,413.466,390.228z M462.259,272.431
			c-6.047,11.11-17.644,18.012-30.266,18.012c-56.788,0-53.7-0.235-56.76,0.599c6.534-22.195,6.902-46.637,0-70.083
			c3.037,0.827-0.131,0.599,56.76,0.599c12.622,0,24.219,6.902,30.265,18.011c3.142,5.775,6.72,11.267,10.698,16.432
			C468.979,261.165,465.401,266.657,462.259,272.431z"/>
	</g>
</g>
<g>
</g>
<g>
</g>
<g>
</g>
<g>
</g>
<g>
</g>
<g>
</g>
<g>
</g>
<g>
</g>
<g>
</g>
<g>
</g>
<g>
</g>
<g>
</g>
<g>
</g>
<g>
</g>
<g>
</g>
</svg>
